<svg xmlns="http://www.w3.org/2000/svg" id="prefigure-dirderiv-angle-figure" viewBox="0 0 340 340">
  <defs>
    <clipPath id="prefigure-dirderiv-angle-__clipPath-0">
      <rect x="10.0" y="10.0" width="320.0" height="320.0"/>
    </clipPath>
    <clipPath id="prefigure-dirderiv-angle-__clipPath-1">
      <rect x="10.0" y="10.0" width="320.0" height="320.0"/>
    </clipPath>
    <marker id="prefigure-dirderiv-angle-arrow-head-end-3_None_24_60-hD55E00" markerWidth="13.5" markerHeight="12.0" markerUnits="userSpaceOnUse" orient="auto" refX="9.8" refY="6.0">
      <path d="M 13.5 6.0L 0.0 12.0L 2.6 7.5L 2.6 4.5L 0.0 0.0Z" fill="#D55E00" stroke="none"/>
    </marker>
    <marker id="prefigure-dirderiv-angle-arrow-head-end-3_None_24_60-hD55E00-outline" markerWidth="17.5" markerHeight="16.0" markerUnits="userSpaceOnUse" orient="auto" refX="11.8" refY="8.0">
      <path d="M 16.3 9.8 L 2.8 15.8 A 2 2 0 0 1 0.0 14.0 L 0.0 2.0 A 2 2 0 0 1 2.8 0.2 L 16.3 6.2 A 2 2 0 0 1 16.3 9.8 Z" fill="white" stroke="none"/>
    </marker>
    <marker id="prefigure-dirderiv-angle-arrow-head-end-3_None_24_60-h0072B2" markerWidth="13.5" markerHeight="12.0" markerUnits="userSpaceOnUse" orient="auto" refX="9.8" refY="6.0">
      <path d="M 13.5 6.0L 0.0 12.0L 2.6 7.5L 2.6 4.5L 0.0 0.0Z" fill="#0072B2" stroke="none"/>
    </marker>
    <marker id="prefigure-dirderiv-angle-arrow-head-end-3_None_24_60-h0072B2-outline" markerWidth="17.5" markerHeight="16.0" markerUnits="userSpaceOnUse" orient="auto" refX="11.8" refY="8.0">
      <path d="M 16.3 9.8 L 2.8 15.8 A 2 2 0 0 1 0.0 14.0 L 0.0 2.0 A 2 2 0 0 1 2.8 0.2 L 16.3 6.2 A 2 2 0 0 1 16.3 9.8 Z" fill="white" stroke="none"/>
    </marker>
    <marker id="prefigure-dirderiv-angle-arrow-head-end-2_None_24_60-h7F7F7F" markerWidth="9.0" markerHeight="8.0" markerUnits="userSpaceOnUse" orient="auto" refX="6.5" refY="4.0">
      <path d="M 9.0 4.0L 0.0 8.0L 1.7 5.0L 1.7 3.0L 0.0 0.0Z" fill="#7F7F7F" stroke="none"/>
    </marker>
    <marker id="prefigure-dirderiv-angle-arrow-head-end-2_None_24_60-h7F7F7F-outline" markerWidth="13.0" markerHeight="12.0" markerUnits="userSpaceOnUse" orient="auto" refX="8.5" refY="6.0">
      <path d="M 11.8 7.8 L 2.8 11.8 A 2 2 0 0 1 0.0 10.0 L 0.0 2.0 A 2 2 0 0 1 2.8 0.2 L 11.8 4.2 A 2 2 0 0 1 11.8 7.8 Z" fill="white" stroke="none"/>
    </marker>
    <marker id="prefigure-dirderiv-angle-arrow-head-start-3_None_24_60-hD55E00" markerWidth="13.5" markerHeight="12.0" markerUnits="userSpaceOnUse" orient="auto" refX="3.6999999999999993" refY="6.0">
      <g transform="rotate(180, 6.75, 6.0)">
        <path d="M 13.5 6.0L 0.0 12.0L 2.6 7.5L 2.6 4.5L 0.0 0.0Z" fill="#D55E00" stroke="none"/>
      </g>
    </marker>
    <marker id="prefigure-dirderiv-angle-arrow-head-start-3_None_24_60-hD55E00-outline" markerWidth="17.5" markerHeight="16.0" markerUnits="userSpaceOnUse" orient="auto" refX="5.699999999999999" refY="8.0">
      <g transform="rotate(180, 8.75, 8.0)">
        <path d="M 16.3 9.8 L 2.8 15.8 A 2 2 0 0 1 0.0 14.0 L 0.0 2.0 A 2 2 0 0 1 2.8 0.2 L 16.3 6.2 A 2 2 0 0 1 16.3 9.8 Z" fill="white" stroke="none"/>
      </g>
    </marker>
    <marker id="prefigure-dirderiv-angle-arrow-head-start-3_None_24_60-h0072B2" markerWidth="13.5" markerHeight="12.0" markerUnits="userSpaceOnUse" orient="auto" refX="3.6999999999999993" refY="6.0">
      <g transform="rotate(180, 6.75, 6.0)">
        <path d="M 13.5 6.0L 0.0 12.0L 2.6 7.5L 2.6 4.5L 0.0 0.0Z" fill="#0072B2" stroke="none"/>
      </g>
    </marker>
    <marker id="prefigure-dirderiv-angle-arrow-head-start-3_None_24_60-h0072B2-outline" markerWidth="17.5" markerHeight="16.0" markerUnits="userSpaceOnUse" orient="auto" refX="5.699999999999999" refY="8.0">
      <g transform="rotate(180, 8.75, 8.0)">
        <path d="M 16.3 9.8 L 2.8 15.8 A 2 2 0 0 1 0.0 14.0 L 0.0 2.0 A 2 2 0 0 1 2.8 0.2 L 16.3 6.2 A 2 2 0 0 1 16.3 9.8 Z" fill="white" stroke="none"/>
      </g>
    </marker>
    <marker id="prefigure-dirderiv-angle-arrow-head-start-2_None_24_60-h7F7F7F" markerWidth="9.0" markerHeight="8.0" markerUnits="userSpaceOnUse" orient="auto" refX="2.5" refY="4.0">
      <g transform="rotate(180, 4.5, 4.0)">
        <path d="M 9.0 4.0L 0.0 8.0L 1.7 5.0L 1.7 3.0L 0.0 0.0Z" fill="#7F7F7F" stroke="none"/>
      </g>
    </marker>
    <marker id="prefigure-dirderiv-angle-arrow-head-start-2_None_24_60-h7F7F7F-outline" markerWidth="13.0" markerHeight="12.0" markerUnits="userSpaceOnUse" orient="auto" refX="4.5" refY="6.0">
      <g transform="rotate(180, 6.5, 6.0)">
        <path d="M 11.8 7.8 L 2.8 11.8 A 2 2 0 0 1 0.0 10.0 L 0.0 2.0 A 2 2 0 0 1 2.8 0.2 L 11.8 4.2 A 2 2 0 0 1 11.8 7.8 Z" fill="white" stroke="none"/>
      </g>
    </marker>
  </defs>
  <path id="prefigure-dirderiv-angle-an-circle" d="M 254.2 170.0 L 254.0 164.7 L 253.5 159.4 L 252.7 154.2 L 251.6 149.1 L 250.1 144.0 L 248.3 139.0 L 246.2 134.1 L 243.8 129.4 L 241.1 124.9 L 238.1 120.5 L 234.9 116.3 L 231.4 112.4 L 227.6 108.6 L 223.7 105.1 L 219.5 101.9 L 215.1 98.9 L 210.6 96.2 L 205.9 93.8 L 201.0 91.7 L 196.0 89.9 L 190.9 88.4 L 185.8 87.3 L 180.6 86.5 L 175.3 86.0 L 170.0 85.8 L 164.7 86.0 L 159.4 86.5 L 154.2 87.3 L 149.1 88.4 L 144.0 89.9 L 139.0 91.7 L 134.1 93.8 L 129.4 96.2 L 124.9 98.9 L 120.5 101.9 L 116.3 105.1 L 112.4 108.6 L 108.6 112.4 L 105.1 116.3 L 101.9 120.5 L 98.9 124.9 L 96.2 129.4 L 93.8 134.1 L 91.7 139.0 L 89.9 144.0 L 88.4 149.1 L 87.3 154.2 L 86.5 159.4 L 86.0 164.7 L 85.8 170.0 L 86.0 175.3 L 86.5 180.6 L 87.3 185.8 L 88.4 190.9 L 89.9 196.0 L 91.7 201.0 L 93.8 205.9 L 96.2 210.6 L 98.9 215.1 L 101.9 219.5 L 105.1 223.7 L 108.6 227.6 L 112.4 231.4 L 116.3 234.9 L 120.5 238.1 L 124.9 241.1 L 129.4 243.8 L 134.1 246.2 L 139.0 248.3 L 144.0 250.1 L 149.1 251.6 L 154.2 252.7 L 159.4 253.5 L 164.7 254.0 L 170.0 254.2 L 175.3 254.0 L 180.6 253.5 L 185.8 252.7 L 190.9 251.6 L 196.0 250.1 L 201.0 248.3 L 205.9 246.2 L 210.6 243.8 L 215.1 241.1 L 219.5 238.1 L 223.7 234.9 L 227.6 231.4 L 231.4 227.6 L 234.9 223.7 L 238.1 219.5 L 241.1 215.1 L 243.8 210.6 L 246.2 205.9 L 248.3 201.0 L 250.1 196.0 L 251.6 190.9 L 252.7 185.8 L 253.5 180.6 L 254.0 175.3 Z" stroke="#7F7F7F" stroke-width="2" stroke-dasharray="6 4" fill="none"/>
  <path id="prefigure-dirderiv-angle-an-grad" stroke="#D55E00" stroke-width="3" fill="none" marker-end="url(#prefigure-dirderiv-angle-arrow-head-end-3_None_24_60-hD55E00)" d="M 170.0 170.0 L 285.0 116.4"/>
  <path id="prefigure-dirderiv-angle-an-u" stroke="#0072B2" stroke-width="3" fill="none" marker-end="url(#prefigure-dirderiv-angle-arrow-head-end-3_None_24_60-h0072B2)" d="M 170.0 170.0 L 177.0 89.8"/>
  <path id="prefigure-dirderiv-angle-an-zero1" stroke="#7F7F7F" stroke-width="2" fill="none" marker-end="url(#prefigure-dirderiv-angle-arrow-head-end-2_None_24_60-h7F7F7F)" d="M 170.0 170.0 L 135.4 95.9"/>
  <path id="prefigure-dirderiv-angle-an-zero2" stroke="#7F7F7F" stroke-width="2" fill="none" marker-end="url(#prefigure-dirderiv-angle-arrow-head-end-2_None_24_60-h7F7F7F)" d="M 170.0 170.0 L 204.6 244.1"/>
  <g id="prefigure-dirderiv-angle-an-P0">
    <g transform="translate(165.0,175.0) translate(-19.5,-0.0)">
      <g id="prefigure-dirderiv-angle-__g-0">
        <svg xmlns:xlink="http://www.w3.org/1999/xlink" style="vertical-align: -3.000px" width="19.520px" height="15.360px" role="img" focusable="false" viewBox="0 -683 1078.6 848.6" x="0.0" y="0.0">
          <defs>
            <path id="prefigure-dirderiv-angle-MJX-2-TEX-I-1D443" d="M287 628Q287 635 230 637Q206 637 199 638T192 648Q192 649 194 659Q200 679 203 681T397 683Q587 682 600 680Q664 669 707 631T751 530Q751 453 685 389Q616 321 507 303Q500 302 402 301H307L277 182Q247 66 247 59Q247 55 248 54T255 50T272 48T305 46H336Q342 37 342 35Q342 19 335 5Q330 0 319 0Q316 0 282 1T182 2Q120 2 87 2T51 1Q33 1 33 11Q33 13 36 25Q40 41 44 43T67 46Q94 46 127 49Q141 52 146 61Q149 65 218 339T287 628ZM645 554Q645 567 643 575T634 597T609 619T560 635Q553 636 480 637Q463 637 445 637T416 636T404 636Q391 635 386 627Q384 621 367 550T332 412T314 344Q314 342 395 342H407H430Q542 342 590 392Q617 419 631 471T645 554Z"/>
            <path id="prefigure-dirderiv-angle-MJX-2-TEX-N-30" d="M96 585Q152 666 249 666Q297 666 345 640T423 548Q460 465 460 320Q460 165 417 83Q397 41 362 16T301 -15T250 -22Q224 -22 198 -16T137 16T82 83Q39 165 39 320Q39 494 96 585ZM321 597Q291 629 250 629Q208 629 178 597Q153 571 145 525T137 333Q137 175 145 125T181 46Q209 16 250 16Q290 16 318 46Q347 76 354 130T362 333Q362 478 354 524T321 597Z"/>
          </defs>
          <g stroke="currentColor" fill="currentColor" stroke-width="0" transform="scale(1,-1)">
            <g data-mml-node="math">
              <g data-mml-node="msub" data-semantic-type="subscript" data-semantic-role="latinletter" data-semantic-id="2" data-semantic-children="0,1" data-semantic-speech="upper P 0">
                <g data-mml-node="mi" data-semantic-type="identifier" data-semantic-role="latinletter" data-semantic-font="italic" data-semantic-annotation="clearspeak:simple" data-semantic-id="0" data-semantic-parent="2" data-semantic-speech="upper P" data-semantic-prefix="Base">
                  <use data-c="1D443" xlink:href="#prefigure-dirderiv-angle-MJX-2-TEX-I-1D443"/>
                </g>
                <g data-mml-node="mn" transform="translate(675,-150) scale(0.707)" data-semantic-type="number" data-semantic-role="integer" data-semantic-font="normal" data-semantic-annotation="clearspeak:simple" data-semantic-id="1" data-semantic-parent="2" data-semantic-speech="0" data-semantic-prefix="Subscript">
                  <use data-c="30" xlink:href="#prefigure-dirderiv-angle-MJX-2-TEX-N-30"/>
                </g>
              </g>
            </g>
          </g>
        </svg>
      </g>
    </g>
    <circle cx="170.0" cy="170.0" r="4" stroke="black" stroke-width="2" fill="black"/>
  </g>
  <g id="prefigure-dirderiv-angle-an-grad-label" transform="translate(300.3,98.6) translate(0.0,-16.5)">
    <g id="prefigure-dirderiv-angle-__g-1">
      <svg xmlns:xlink="http://www.w3.org/1999/xlink" style="vertical-align: -3.712px; color:#D55E00" width="25.032px" height="16.472px" role="img" focusable="false" viewBox="0 -705 1383 910" x="0.0" y="0.0">
        <defs>
          <path id="prefigure-dirderiv-angle-MJX-3-TEX-N-2207" d="M46 676Q46 679 51 683H781Q786 679 786 676Q786 674 617 326T444 -26Q439 -33 416 -33T388 -26Q385 -22 216 326T46 676ZM697 596Q697 597 445 597T193 596Q195 591 319 336T445 80L697 596Z"/>
          <path id="prefigure-dirderiv-angle-MJX-3-TEX-I-1D453" d="M118 -162Q120 -162 124 -164T135 -167T147 -168Q160 -168 171 -155T187 -126Q197 -99 221 27T267 267T289 382V385H242Q195 385 192 387Q188 390 188 397L195 425Q197 430 203 430T250 431Q298 431 298 432Q298 434 307 482T319 540Q356 705 465 705Q502 703 526 683T550 630Q550 594 529 578T487 561Q443 561 443 603Q443 622 454 636T478 657L487 662Q471 668 457 668Q445 668 434 658T419 630Q412 601 403 552T387 469T380 433Q380 431 435 431Q480 431 487 430T498 424Q499 420 496 407T491 391Q489 386 482 386T428 385H372L349 263Q301 15 282 -47Q255 -132 212 -173Q175 -205 139 -205Q107 -205 81 -186T55 -132Q55 -95 76 -78T118 -61Q162 -61 162 -103Q162 -122 151 -136T127 -157L118 -162Z"/>
        </defs>
        <g stroke="currentColor" fill="currentColor" stroke-width="0" transform="scale(1,-1)">
          <g data-mml-node="math" data-semantic-type="prefixop" data-semantic-role="prefix operator" data-semantic-id="2" data-semantic-children="1" data-semantic-content="0" data-semantic-speech="nabla f">
            <g data-mml-node="mi" data-semantic-type="operator" data-semantic-role="prefix operator" data-semantic-font="normal" data-semantic-id="0" data-semantic-parent="2" data-semantic-operator="prefixop,∇" data-semantic-speech="nabla">
              <use data-c="2207" xlink:href="#prefigure-dirderiv-angle-MJX-3-TEX-N-2207"/>
            </g>
            <g data-mml-node="mi" data-semantic-type="identifier" data-semantic-role="latinletter" data-semantic-font="italic" data-semantic-annotation="clearspeak:simple" data-semantic-id="1" data-semantic-parent="2" data-semantic-speech="f" transform="translate(833,0)">
              <use data-c="1D453" xlink:href="#prefigure-dirderiv-angle-MJX-3-TEX-I-1D453"/>
            </g>
          </g>
        </g>
      </svg>
    </g>
  </g>
  <g id="prefigure-dirderiv-angle-an-u-label" transform="translate(177.6,73.4) translate(-5.8,-8.3)">
    <g id="prefigure-dirderiv-angle-__g-2">
      <svg xmlns:xlink="http://www.w3.org/1999/xlink" style="vertical-align: -0.112px; color:#0072B2" width="11.568px" height="8.256px" role="img" focusable="false" viewBox="0 -450 639 456" x="0.0" y="0.0">
        <defs>
          <path id="prefigure-dirderiv-angle-MJX-4-TEX-B-1D42E" d="M40 442L134 446Q228 450 229 450H235V273V165Q235 90 238 74T254 52Q268 46 304 46H319Q352 46 380 67T419 121L420 123Q424 135 425 199Q425 201 425 207Q425 233 425 249V316Q425 354 423 363T410 376Q396 380 369 380H356V442L554 450V267Q554 84 556 79Q561 62 610 62H623V31Q623 0 622 0Q603 0 527 -3T432 -6Q431 -6 431 25V56L420 45Q373 6 332 -1Q313 -6 281 -6Q208 -6 165 14T109 87L107 98L106 230Q106 358 104 366Q96 380 50 380H37V442H40Z"/>
        </defs>
        <g stroke="currentColor" fill="currentColor" stroke-width="0" transform="scale(1,-1)">
          <g data-mml-node="math">
            <g data-mml-node="TeXAtom" data-mjx-texclass="ORD">
              <g data-mml-node="mi" data-semantic-type="identifier" data-semantic-role="latinletter" data-semantic-font="bold" data-semantic-annotation="clearspeak:simple" data-semantic-id="0" data-semantic-attributes="texclass:ORD" data-semantic-speech="bold u">
                <use data-c="1D42E" xlink:href="#prefigure-dirderiv-angle-MJX-4-TEX-B-1D42E"/>
              </g>
            </g>
          </g>
        </g>
      </svg>
    </g>
  </g>
  <g id="prefigure-dirderiv-angle-an-zero1-label" transform="translate(119.7,69.2) translate(-67.8,-16.5)">
    <g id="prefigure-dirderiv-angle-__g-3">
      <svg xmlns:xlink="http://www.w3.org/1999/xlink" style="vertical-align: -3.712px" width="67.808px" height="16.472px" role="img" focusable="false" viewBox="0 -705 3746.4 910" x="0.0" y="0.0">
        <defs>
          <path id="prefigure-dirderiv-angle-MJX-5-TEX-I-1D437" d="M287 628Q287 635 230 637Q207 637 200 638T193 647Q193 655 197 667T204 682Q206 683 403 683Q570 682 590 682T630 676Q702 659 752 597T803 431Q803 275 696 151T444 3L430 1L236 0H125H72Q48 0 41 2T33 11Q33 13 36 25Q40 41 44 43T67 46Q94 46 127 49Q141 52 146 61Q149 65 218 339T287 628ZM703 469Q703 507 692 537T666 584T629 613T590 629T555 636Q553 636 541 636T512 636T479 637H436Q392 637 386 627Q384 623 313 339T242 52Q242 48 253 48T330 47Q335 47 349 47T373 46Q499 46 581 128Q617 164 640 212T683 339T703 469Z"/>
          <path id="prefigure-dirderiv-angle-MJX-5-TEX-B-1D42E" d="M40 442L134 446Q228 450 229 450H235V273V165Q235 90 238 74T254 52Q268 46 304 46H319Q352 46 380 67T419 121L420 123Q424 135 425 199Q425 201 425 207Q425 233 425 249V316Q425 354 423 363T410 376Q396 380 369 380H356V442L554 450V267Q554 84 556 79Q561 62 610 62H623V31Q623 0 622 0Q603 0 527 -3T432 -6Q431 -6 431 25V56L420 45Q373 6 332 -1Q313 -6 281 -6Q208 -6 165 14T109 87L107 98L106 230Q106 358 104 366Q96 380 50 380H37V442H40Z"/>
          <path id="prefigure-dirderiv-angle-MJX-5-TEX-N-2062" d=""/>
          <path id="prefigure-dirderiv-angle-MJX-5-TEX-I-1D453" d="M118 -162Q120 -162 124 -164T135 -167T147 -168Q160 -168 171 -155T187 -126Q197 -99 221 27T267 267T289 382V385H242Q195 385 192 387Q188 390 188 397L195 425Q197 430 203 430T250 431Q298 431 298 432Q298 434 307 482T319 540Q356 705 465 705Q502 703 526 683T550 630Q550 594 529 578T487 561Q443 561 443 603Q443 622 454 636T478 657L487 662Q471 668 457 668Q445 668 434 658T419 630Q412 601 403 552T387 469T380 433Q380 431 435 431Q480 431 487 430T498 424Q499 420 496 407T491 391Q489 386 482 386T428 385H372L349 263Q301 15 282 -47Q255 -132 212 -173Q175 -205 139 -205Q107 -205 81 -186T55 -132Q55 -95 76 -78T118 -61Q162 -61 162 -103Q162 -122 151 -136T127 -157L118 -162Z"/>
          <path id="prefigure-dirderiv-angle-MJX-5-TEX-N-3D" d="M56 347Q56 360 70 367H707Q722 359 722 347Q722 336 708 328L390 327H72Q56 332 56 347ZM56 153Q56 168 72 173H708Q722 163 722 153Q722 140 707 133H70Q56 140 56 153Z"/>
          <path id="prefigure-dirderiv-angle-MJX-5-TEX-N-30" d="M96 585Q152 666 249 666Q297 666 345 640T423 548Q460 465 460 320Q460 165 417 83Q397 41 362 16T301 -15T250 -22Q224 -22 198 -16T137 16T82 83Q39 165 39 320Q39 494 96 585ZM321 597Q291 629 250 629Q208 629 178 597Q153 571 145 525T137 333Q137 175 145 125T181 46Q209 16 250 16Q290 16 318 46Q347 76 354 130T362 333Q362 478 354 524T321 597Z"/>
        </defs>
        <g stroke="currentColor" fill="currentColor" stroke-width="0" transform="scale(1,-1)">
          <g data-mml-node="math" data-semantic-type="relseq" data-semantic-role="equality" data-semantic-id="8" data-semantic-children="7,5" data-semantic-content="4" data-semantic-speech="upper D Subscript bold u Baseline f equals 0">
            <g data-mml-node="mrow" data-semantic-type="infixop" data-semantic-role="implicit" data-semantic-annotation="clearspeak:unit" data-semantic-id="7" data-semantic-children="2,3" data-semantic-content="6" data-semantic-parent="8" data-semantic-speech="upper D Subscript bold u Baseline f">
              <g data-mml-node="msub" data-semantic-type="subscript" data-semantic-role="latinletter" data-semantic-id="2" data-semantic-children="0,1" data-semantic-parent="7" data-semantic-speech="upper D Subscript bold u Baseline">
                <g data-mml-node="mi" data-semantic-type="identifier" data-semantic-role="latinletter" data-semantic-font="italic" data-semantic-annotation="clearspeak:simple" data-semantic-id="0" data-semantic-parent="2" data-semantic-speech="upper D" data-semantic-prefix="Base">
                  <use data-c="1D437" xlink:href="#prefigure-dirderiv-angle-MJX-5-TEX-I-1D437"/>
                </g>
                <g data-mml-node="TeXAtom" transform="translate(861,-150) scale(0.707)" data-mjx-texclass="ORD">
                  <g data-mml-node="TeXAtom" data-mjx-texclass="ORD">
                    <g data-mml-node="mi" data-semantic-type="identifier" data-semantic-role="latinletter" data-semantic-font="bold" data-semantic-annotation="clearspeak:simple" data-semantic-id="1" data-semantic-parent="2" data-semantic-attributes="texclass:ORD" data-semantic-speech="bold u" data-semantic-prefix="Subscript">
                      <use data-c="1D42E" xlink:href="#prefigure-dirderiv-angle-MJX-5-TEX-B-1D42E"/>
                    </g>
                  </g>
                </g>
              </g>
              <g data-mml-node="mo" data-semantic-type="operator" data-semantic-role="multiplication" data-semantic-id="6" data-semantic-parent="7" data-semantic-added="true" data-semantic-operator="infixop,⁢" data-semantic-speech="times" transform="translate(1362.8,0)">
                <use data-c="2062" xlink:href="#prefigure-dirderiv-angle-MJX-5-TEX-N-2062"/>
              </g>
              <g data-mml-node="mi" data-semantic-type="identifier" data-semantic-role="latinletter" data-semantic-font="italic" data-semantic-annotation="clearspeak:simple" data-semantic-id="3" data-semantic-parent="7" data-semantic-speech="f" transform="translate(1362.8,0)">
                <use data-c="1D453" xlink:href="#prefigure-dirderiv-angle-MJX-5-TEX-I-1D453"/>
              </g>
            </g>
            <g data-mml-node="mo" data-semantic-type="relation" data-semantic-role="equality" data-semantic-id="4" data-semantic-parent="8" data-semantic-operator="relseq,=" data-semantic-speech="equals" transform="translate(2190.6,0)">
              <use data-c="3D" xlink:href="#prefigure-dirderiv-angle-MJX-5-TEX-N-3D"/>
            </g>
            <g data-mml-node="mn" data-semantic-type="number" data-semantic-role="integer" data-semantic-font="normal" data-semantic-annotation="clearspeak:simple" data-semantic-id="5" data-semantic-parent="8" data-semantic-speech="0" transform="translate(3246.4,0)">
              <use data-c="30" xlink:href="#prefigure-dirderiv-angle-MJX-5-TEX-N-30"/>
            </g>
          </g>
        </g>
      </svg>
    </g>
  </g>
  <g id="prefigure-dirderiv-angle-an-zero2-label" transform="translate(220.3,270.8) translate(0.0,-0.0)">
    <g id="prefigure-dirderiv-angle-__g-4">
      <svg xmlns:xlink="http://www.w3.org/1999/xlink" style="vertical-align: -3.712px" width="67.808px" height="16.472px" role="img" focusable="false" viewBox="0 -705 3746.4 910" x="0.0" y="0.0">
        <defs>
          <path id="prefigure-dirderiv-angle-MJX-6-TEX-I-1D437" d="M287 628Q287 635 230 637Q207 637 200 638T193 647Q193 655 197 667T204 682Q206 683 403 683Q570 682 590 682T630 676Q702 659 752 597T803 431Q803 275 696 151T444 3L430 1L236 0H125H72Q48 0 41 2T33 11Q33 13 36 25Q40 41 44 43T67 46Q94 46 127 49Q141 52 146 61Q149 65 218 339T287 628ZM703 469Q703 507 692 537T666 584T629 613T590 629T555 636Q553 636 541 636T512 636T479 637H436Q392 637 386 627Q384 623 313 339T242 52Q242 48 253 48T330 47Q335 47 349 47T373 46Q499 46 581 128Q617 164 640 212T683 339T703 469Z"/>
          <path id="prefigure-dirderiv-angle-MJX-6-TEX-B-1D42E" d="M40 442L134 446Q228 450 229 450H235V273V165Q235 90 238 74T254 52Q268 46 304 46H319Q352 46 380 67T419 121L420 123Q424 135 425 199Q425 201 425 207Q425 233 425 249V316Q425 354 423 363T410 376Q396 380 369 380H356V442L554 450V267Q554 84 556 79Q561 62 610 62H623V31Q623 0 622 0Q603 0 527 -3T432 -6Q431 -6 431 25V56L420 45Q373 6 332 -1Q313 -6 281 -6Q208 -6 165 14T109 87L107 98L106 230Q106 358 104 366Q96 380 50 380H37V442H40Z"/>
          <path id="prefigure-dirderiv-angle-MJX-6-TEX-N-2062" d=""/>
          <path id="prefigure-dirderiv-angle-MJX-6-TEX-I-1D453" d="M118 -162Q120 -162 124 -164T135 -167T147 -168Q160 -168 171 -155T187 -126Q197 -99 221 27T267 267T289 382V385H242Q195 385 192 387Q188 390 188 397L195 425Q197 430 203 430T250 431Q298 431 298 432Q298 434 307 482T319 540Q356 705 465 705Q502 703 526 683T550 630Q550 594 529 578T487 561Q443 561 443 603Q443 622 454 636T478 657L487 662Q471 668 457 668Q445 668 434 658T419 630Q412 601 403 552T387 469T380 433Q380 431 435 431Q480 431 487 430T498 424Q499 420 496 407T491 391Q489 386 482 386T428 385H372L349 263Q301 15 282 -47Q255 -132 212 -173Q175 -205 139 -205Q107 -205 81 -186T55 -132Q55 -95 76 -78T118 -61Q162 -61 162 -103Q162 -122 151 -136T127 -157L118 -162Z"/>
          <path id="prefigure-dirderiv-angle-MJX-6-TEX-N-3D" d="M56 347Q56 360 70 367H707Q722 359 722 347Q722 336 708 328L390 327H72Q56 332 56 347ZM56 153Q56 168 72 173H708Q722 163 722 153Q722 140 707 133H70Q56 140 56 153Z"/>
          <path id="prefigure-dirderiv-angle-MJX-6-TEX-N-30" d="M96 585Q152 666 249 666Q297 666 345 640T423 548Q460 465 460 320Q460 165 417 83Q397 41 362 16T301 -15T250 -22Q224 -22 198 -16T137 16T82 83Q39 165 39 320Q39 494 96 585ZM321 597Q291 629 250 629Q208 629 178 597Q153 571 145 525T137 333Q137 175 145 125T181 46Q209 16 250 16Q290 16 318 46Q347 76 354 130T362 333Q362 478 354 524T321 597Z"/>
        </defs>
        <g stroke="currentColor" fill="currentColor" stroke-width="0" transform="scale(1,-1)">
          <g data-mml-node="math" data-semantic-type="relseq" data-semantic-role="equality" data-semantic-id="8" data-semantic-children="7,5" data-semantic-content="4" data-semantic-speech="upper D Subscript bold u Baseline f equals 0">
            <g data-mml-node="mrow" data-semantic-type="infixop" data-semantic-role="implicit" data-semantic-annotation="clearspeak:unit" data-semantic-id="7" data-semantic-children="2,3" data-semantic-content="6" data-semantic-parent="8" data-semantic-speech="upper D Subscript bold u Baseline f">
              <g data-mml-node="msub" data-semantic-type="subscript" data-semantic-role="latinletter" data-semantic-id="2" data-semantic-children="0,1" data-semantic-parent="7" data-semantic-speech="upper D Subscript bold u Baseline">
                <g data-mml-node="mi" data-semantic-type="identifier" data-semantic-role="latinletter" data-semantic-font="italic" data-semantic-annotation="clearspeak:simple" data-semantic-id="0" data-semantic-parent="2" data-semantic-speech="upper D" data-semantic-prefix="Base">
                  <use data-c="1D437" xlink:href="#prefigure-dirderiv-angle-MJX-6-TEX-I-1D437"/>
                </g>
                <g data-mml-node="TeXAtom" transform="translate(861,-150) scale(0.707)" data-mjx-texclass="ORD">
                  <g data-mml-node="TeXAtom" data-mjx-texclass="ORD">
                    <g data-mml-node="mi" data-semantic-type="identifier" data-semantic-role="latinletter" data-semantic-font="bold" data-semantic-annotation="clearspeak:simple" data-semantic-id="1" data-semantic-parent="2" data-semantic-attributes="texclass:ORD" data-semantic-speech="bold u" data-semantic-prefix="Subscript">
                      <use data-c="1D42E" xlink:href="#prefigure-dirderiv-angle-MJX-6-TEX-B-1D42E"/>
                    </g>
                  </g>
                </g>
              </g>
              <g data-mml-node="mo" data-semantic-type="operator" data-semantic-role="multiplication" data-semantic-id="6" data-semantic-parent="7" data-semantic-added="true" data-semantic-operator="infixop,⁢" data-semantic-speech="times" transform="translate(1362.8,0)">
                <use data-c="2062" xlink:href="#prefigure-dirderiv-angle-MJX-6-TEX-N-2062"/>
              </g>
              <g data-mml-node="mi" data-semantic-type="identifier" data-semantic-role="latinletter" data-semantic-font="italic" data-semantic-annotation="clearspeak:simple" data-semantic-id="3" data-semantic-parent="7" data-semantic-speech="f" transform="translate(1362.8,0)">
                <use data-c="1D453" xlink:href="#prefigure-dirderiv-angle-MJX-6-TEX-I-1D453"/>
              </g>
            </g>
            <g data-mml-node="mo" data-semantic-type="relation" data-semantic-role="equality" data-semantic-id="4" data-semantic-parent="8" data-semantic-operator="relseq,=" data-semantic-speech="equals" transform="translate(2190.6,0)">
              <use data-c="3D" xlink:href="#prefigure-dirderiv-angle-MJX-6-TEX-N-3D"/>
            </g>
            <g data-mml-node="mn" data-semantic-type="number" data-semantic-role="integer" data-semantic-font="normal" data-semantic-annotation="clearspeak:simple" data-semantic-id="5" data-semantic-parent="8" data-semantic-speech="0" transform="translate(3246.4,0)">
              <use data-c="30" xlink:href="#prefigure-dirderiv-angle-MJX-6-TEX-N-30"/>
            </g>
          </g>
        </g>
      </svg>
    </g>
  </g>
  <g id="prefigure-dirderiv-angle-an-formula" transform="translate(170.0,306.4) translate(-66.3,-9.0)">
    <g id="prefigure-dirderiv-angle-__g-5">
      <svg xmlns:xlink="http://www.w3.org/1999/xlink" style="vertical-align: -4.512px" width="132.592px" height="18.080px" role="img" focusable="false" viewBox="0 -749.5 7325.7 999" x="0.0" y="0.0">
        <defs>
          <path id="prefigure-dirderiv-angle-MJX-7-TEX-I-1D437" d="M287 628Q287 635 230 637Q207 637 200 638T193 647Q193 655 197 667T204 682Q206 683 403 683Q570 682 590 682T630 676Q702 659 752 597T803 431Q803 275 696 151T444 3L430 1L236 0H125H72Q48 0 41 2T33 11Q33 13 36 25Q40 41 44 43T67 46Q94 46 127 49Q141 52 146 61Q149 65 218 339T287 628ZM703 469Q703 507 692 537T666 584T629 613T590 629T555 636Q553 636 541 636T512 636T479 637H436Q392 637 386 627Q384 623 313 339T242 52Q242 48 253 48T330 47Q335 47 349 47T373 46Q499 46 581 128Q617 164 640 212T683 339T703 469Z"/>
          <path id="prefigure-dirderiv-angle-MJX-7-TEX-B-1D42E" d="M40 442L134 446Q228 450 229 450H235V273V165Q235 90 238 74T254 52Q268 46 304 46H319Q352 46 380 67T419 121L420 123Q424 135 425 199Q425 201 425 207Q425 233 425 249V316Q425 354 423 363T410 376Q396 380 369 380H356V442L554 450V267Q554 84 556 79Q561 62 610 62H623V31Q623 0 622 0Q603 0 527 -3T432 -6Q431 -6 431 25V56L420 45Q373 6 332 -1Q313 -6 281 -6Q208 -6 165 14T109 87L107 98L106 230Q106 358 104 366Q96 380 50 380H37V442H40Z"/>
          <path id="prefigure-dirderiv-angle-MJX-7-TEX-N-2062" d=""/>
          <path id="prefigure-dirderiv-angle-MJX-7-TEX-I-1D453" d="M118 -162Q120 -162 124 -164T135 -167T147 -168Q160 -168 171 -155T187 -126Q197 -99 221 27T267 267T289 382V385H242Q195 385 192 387Q188 390 188 397L195 425Q197 430 203 430T250 431Q298 431 298 432Q298 434 307 482T319 540Q356 705 465 705Q502 703 526 683T550 630Q550 594 529 578T487 561Q443 561 443 603Q443 622 454 636T478 657L487 662Q471 668 457 668Q445 668 434 658T419 630Q412 601 403 552T387 469T380 433Q380 431 435 431Q480 431 487 430T498 424Q499 420 496 407T491 391Q489 386 482 386T428 385H372L349 263Q301 15 282 -47Q255 -132 212 -173Q175 -205 139 -205Q107 -205 81 -186T55 -132Q55 -95 76 -78T118 -61Q162 -61 162 -103Q162 -122 151 -136T127 -157L118 -162Z"/>
          <path id="prefigure-dirderiv-angle-MJX-7-TEX-N-3D" d="M56 347Q56 360 70 367H707Q722 359 722 347Q722 336 708 328L390 327H72Q56 332 56 347ZM56 153Q56 168 72 173H708Q722 163 722 153Q722 140 707 133H70Q56 140 56 153Z"/>
          <path id="prefigure-dirderiv-angle-MJX-7-TEX-N-7C" d="M139 -249H137Q125 -249 119 -235V251L120 737Q130 750 139 750Q152 750 159 735V-235Q151 -249 141 -249H139Z"/>
          <path id="prefigure-dirderiv-angle-MJX-7-TEX-N-2207" d="M46 676Q46 679 51 683H781Q786 679 786 676Q786 674 617 326T444 -26Q439 -33 416 -33T388 -26Q385 -22 216 326T46 676ZM697 596Q697 597 445 597T193 596Q195 591 319 336T445 80L697 596Z"/>
          <path id="prefigure-dirderiv-angle-MJX-7-TEX-N-63" d="M370 305T349 305T313 320T297 358Q297 381 312 396Q317 401 317 402T307 404Q281 408 258 408Q209 408 178 376Q131 329 131 219Q131 137 162 90Q203 29 272 29Q313 29 338 55T374 117Q376 125 379 127T395 129H409Q415 123 415 120Q415 116 411 104T395 71T366 33T318 2T249 -11Q163 -11 99 53T34 214Q34 318 99 383T250 448T370 421T404 357Q404 334 387 320Z"/>
          <path id="prefigure-dirderiv-angle-MJX-7-TEX-N-6F" d="M28 214Q28 309 93 378T250 448Q340 448 405 380T471 215Q471 120 407 55T250 -10Q153 -10 91 57T28 214ZM250 30Q372 30 372 193V225V250Q372 272 371 288T364 326T348 362T317 390T268 410Q263 411 252 411Q222 411 195 399Q152 377 139 338T126 246V226Q126 130 145 91Q177 30 250 30Z"/>
          <path id="prefigure-dirderiv-angle-MJX-7-TEX-N-73" d="M295 316Q295 356 268 385T190 414Q154 414 128 401Q98 382 98 349Q97 344 98 336T114 312T157 287Q175 282 201 278T245 269T277 256Q294 248 310 236T342 195T359 133Q359 71 321 31T198 -10H190Q138 -10 94 26L86 19L77 10Q71 4 65 -1L54 -11H46H42Q39 -11 33 -5V74V132Q33 153 35 157T45 162H54Q66 162 70 158T75 146T82 119T101 77Q136 26 198 26Q295 26 295 104Q295 133 277 151Q257 175 194 187T111 210Q75 227 54 256T33 318Q33 357 50 384T93 424T143 442T187 447H198Q238 447 268 432L283 424L292 431Q302 440 314 448H322H326Q329 448 335 442V310L329 304H301Q295 310 295 316Z"/>
          <path id="prefigure-dirderiv-angle-MJX-7-TEX-N-2061" d=""/>
          <path id="prefigure-dirderiv-angle-MJX-7-TEX-I-1D703" d="M35 200Q35 302 74 415T180 610T319 704Q320 704 327 704T339 705Q393 701 423 656Q462 596 462 495Q462 380 417 261T302 66T168 -10H161Q125 -10 99 10T60 63T41 130T35 200ZM383 566Q383 668 330 668Q294 668 260 623T204 521T170 421T157 371Q206 370 254 370L351 371Q352 372 359 404T375 484T383 566ZM113 132Q113 26 166 26Q181 26 198 36T239 74T287 161T335 307L340 324H145Q145 321 136 286T120 208T113 132Z"/>
        </defs>
        <g stroke="currentColor" fill="currentColor" stroke-width="0" transform="scale(1,-1)">
          <g data-mml-node="math" data-semantic-type="relseq" data-semantic-role="equality" data-semantic-id="20" data-semantic-children="17,19" data-semantic-content="4" data-semantic-speech="upper D Subscript bold u Baseline f equals StartAbsoluteValue nabla f EndAbsoluteValue cosine theta">
            <g data-mml-node="mrow" data-semantic-type="infixop" data-semantic-role="implicit" data-semantic-annotation="clearspeak:unit" data-semantic-id="17" data-semantic-children="2,3" data-semantic-content="16" data-semantic-parent="20" data-semantic-speech="upper D Subscript bold u Baseline f">
              <g data-mml-node="msub" data-semantic-type="subscript" data-semantic-role="latinletter" data-semantic-id="2" data-semantic-children="0,1" data-semantic-parent="17" data-semantic-speech="upper D Subscript bold u Baseline">
                <g data-mml-node="mi" data-semantic-type="identifier" data-semantic-role="latinletter" data-semantic-font="italic" data-semantic-annotation="clearspeak:simple" data-semantic-id="0" data-semantic-parent="2" data-semantic-speech="upper D" data-semantic-prefix="Base">
                  <use data-c="1D437" xlink:href="#prefigure-dirderiv-angle-MJX-7-TEX-I-1D437"/>
                </g>
                <g data-mml-node="TeXAtom" transform="translate(861,-150) scale(0.707)" data-mjx-texclass="ORD">
                  <g data-mml-node="TeXAtom" data-mjx-texclass="ORD">
                    <g data-mml-node="mi" data-semantic-type="identifier" data-semantic-role="latinletter" data-semantic-font="bold" data-semantic-annotation="clearspeak:simple" data-semantic-id="1" data-semantic-parent="2" data-semantic-attributes="texclass:ORD" data-semantic-speech="bold u" data-semantic-prefix="Subscript">
                      <use data-c="1D42E" xlink:href="#prefigure-dirderiv-angle-MJX-7-TEX-B-1D42E"/>
                    </g>
                  </g>
                </g>
              </g>
              <g data-mml-node="mo" data-semantic-type="operator" data-semantic-role="multiplication" data-semantic-id="16" data-semantic-parent="17" data-semantic-added="true" data-semantic-operator="infixop,⁢" data-semantic-speech="times" transform="translate(1362.8,0)">
                <use data-c="2062" xlink:href="#prefigure-dirderiv-angle-MJX-7-TEX-N-2062"/>
              </g>
              <g data-mml-node="mi" data-semantic-type="identifier" data-semantic-role="latinletter" data-semantic-font="italic" data-semantic-annotation="clearspeak:simple" data-semantic-id="3" data-semantic-parent="17" data-semantic-speech="f" transform="translate(1362.8,0)">
                <use data-c="1D453" xlink:href="#prefigure-dirderiv-angle-MJX-7-TEX-I-1D453"/>
              </g>
            </g>
            <g data-mml-node="mo" data-semantic-type="relation" data-semantic-role="equality" data-semantic-id="4" data-semantic-parent="20" data-semantic-operator="relseq,=" data-semantic-speech="equals" transform="translate(2190.6,0)">
              <use data-c="3D" xlink:href="#prefigure-dirderiv-angle-MJX-7-TEX-N-3D"/>
            </g>
            <g data-mml-node="mrow" data-semantic-type="infixop" data-semantic-role="implicit" data-semantic-annotation="clearspeak:unit" data-semantic-id="19" data-semantic-children="13,15" data-semantic-content="18" data-semantic-parent="20" data-semantic-speech="StartAbsoluteValue nabla f EndAbsoluteValue cosine theta" transform="translate(3246.4,0)">
              <g data-mml-node="mrow" data-semantic-type="fenced" data-semantic-role="neutral" data-semantic-id="13" data-semantic-children="12" data-semantic-content="5,8" data-semantic-parent="19" data-semantic-speech="StartAbsoluteValue nabla f EndAbsoluteValue">
                <g data-mml-node="mo" data-semantic-type="fence" data-semantic-role="neutral" data-semantic-id="5" data-semantic-parent="13" data-semantic-attributes="texclass:ORD" data-semantic-operator="fenced" data-semantic-speech="vertical bar" transform="translate(0 -0.5)">
                  <use data-c="7C" xlink:href="#prefigure-dirderiv-angle-MJX-7-TEX-N-7C"/>
                </g>
                <g data-mml-node="mrow" data-semantic-type="prefixop" data-semantic-role="prefix operator" data-semantic-id="12" data-semantic-children="7" data-semantic-content="6" data-semantic-parent="13" data-semantic-speech="nabla f" transform="translate(278,0)">
                  <g data-mml-node="mi" data-semantic-type="operator" data-semantic-role="prefix operator" data-semantic-font="normal" data-semantic-id="6" data-semantic-parent="12" data-semantic-operator="prefixop,∇" data-semantic-speech="nabla">
                    <use data-c="2207" xlink:href="#prefigure-dirderiv-angle-MJX-7-TEX-N-2207"/>
                  </g>
                  <g data-mml-node="mi" data-semantic-type="identifier" data-semantic-role="latinletter" data-semantic-font="italic" data-semantic-annotation="clearspeak:simple" data-semantic-id="7" data-semantic-parent="12" data-semantic-speech="f" transform="translate(833,0)">
                    <use data-c="1D453" xlink:href="#prefigure-dirderiv-angle-MJX-7-TEX-I-1D453"/>
                  </g>
                </g>
                <g data-mml-node="mo" data-semantic-type="fence" data-semantic-role="neutral" data-semantic-id="8" data-semantic-parent="13" data-semantic-attributes="texclass:ORD" data-semantic-operator="fenced" data-semantic-speech="vertical bar" transform="translate(1661,0) translate(0 -0.5)">
                  <use data-c="7C" xlink:href="#prefigure-dirderiv-angle-MJX-7-TEX-N-7C"/>
                </g>
              </g>
              <g data-mml-node="mo" data-semantic-type="operator" data-semantic-role="multiplication" data-semantic-id="18" data-semantic-parent="19" data-semantic-added="true" data-semantic-operator="infixop,⁢" data-semantic-speech="times" transform="translate(1939,0)">
                <use data-c="2062" xlink:href="#prefigure-dirderiv-angle-MJX-7-TEX-N-2062"/>
              </g>
              <g data-mml-node="mrow" data-semantic-type="appl" data-semantic-role="prefix function" data-semantic-annotation="clearspeak:simple" data-semantic-id="15" data-semantic-children="9,11" data-semantic-content="14,9" data-semantic-parent="19" data-semantic-speech="cosine theta" transform="translate(2105.7,0)">
                <g data-mml-node="mi" data-semantic-type="function" data-semantic-role="prefix function" data-semantic-font="normal" data-semantic-id="9" data-semantic-parent="15" data-semantic-operator="appl" data-semantic-speech="cosine">
                  <use data-c="63" xlink:href="#prefigure-dirderiv-angle-MJX-7-TEX-N-63"/>
                  <use data-c="6F" xlink:href="#prefigure-dirderiv-angle-MJX-7-TEX-N-6F" transform="translate(444,0)"/>
                  <use data-c="73" xlink:href="#prefigure-dirderiv-angle-MJX-7-TEX-N-73" transform="translate(944,0)"/>
                </g>
                <g data-mml-node="mo" data-semantic-type="punctuation" data-semantic-role="application" data-semantic-id="14" data-semantic-parent="15" data-semantic-attributes="texclass:NONE" data-semantic-operator="appl" data-semantic-speech="of" transform="translate(1338,0)">
                  <use data-c="2061" xlink:href="#prefigure-dirderiv-angle-MJX-7-TEX-N-2061"/>
                </g>
                <g data-mml-node="mi" data-semantic-type="identifier" data-semantic-role="greekletter" data-semantic-font="italic" data-semantic-annotation="clearspeak:simple" data-semantic-id="11" data-semantic-parent="15" data-semantic-speech="theta" transform="translate(1504.7,0)">
                  <use data-c="1D703" xlink:href="#prefigure-dirderiv-angle-MJX-7-TEX-I-1D703"/>
                </g>
              </g>
            </g>
          </g>
        </g>
      </svg>
    </g>
  </g>
</svg>
